<svg width="42" height="41" viewBox="0 0 42 41" fill="none" xmlns="http://www.w3.org/2000/svg">
<path fill-rule="evenodd" clip-rule="evenodd" d="M20.9999 0.290588C32.1052 0.290588 41.1072 9.51967 41.1072 20.9064C41.1072 30.013 35.3525 37.7382 27.3679 40.4668C26.3485 40.6699 25.9865 40.0261 25.9865 39.4771C25.9865 38.7975 26.0107 36.5777 26.0107 33.819C26.0107 31.8968 25.3672 30.6422 24.6454 30.0028C29.1233 29.492 33.8284 27.7486 33.8284 19.8303C33.8284 17.5783 33.0482 15.7406 31.7573 14.2969C31.9664 13.7762 32.6561 11.6792 31.5603 8.84009C31.5603 8.84009 29.8753 8.28768 26.0368 10.9539C24.4302 10.4975 22.7091 10.2678 20.9999 10.2598C19.2908 10.2678 17.5717 10.4975 15.9671 10.9539C12.1246 8.28768 10.4356 8.84009 10.4356 8.84009C9.34378 11.6792 10.0335 13.7762 10.2406 14.2969C8.95571 15.7406 8.16952 17.5783 8.16952 19.8303C8.16952 27.7285 12.8646 29.4987 17.3304 30.0195C16.7553 30.5342 16.2345 31.4423 16.0536 32.7754C14.9074 33.3022 11.9959 34.2139 10.2023 31.0631C10.2023 31.0631 9.13868 29.0823 7.11991 28.9375C7.11991 28.9375 5.15945 28.9115 6.98318 30.1903C6.98318 30.1903 8.30021 30.8237 9.21509 33.2064C9.21509 33.2064 10.3954 36.8859 15.9892 35.6393C15.9993 37.3625 16.0174 38.9865 16.0174 39.4771C16.0174 40.022 15.6474 40.6598 14.644 40.4687C6.65342 37.7442 0.8927 30.015 0.8927 20.9064C0.8927 9.51967 9.89672 0.290588 20.9999 0.290588Z" fill="white"/>
</svg>
