<svg width="42" height="41" viewBox="0 0 42 41" fill="none" xmlns="http://www.w3.org/2000/svg">
<path d="M37.888 0.294195H4.33599C3.90353 0.273938 3.4713 0.339158 3.06408 0.486159C2.65686 0.633159 2.28263 0.859025 1.96279 1.15081C1.64298 1.44263 1.38384 1.79466 1.20024 2.18673C1.01665 2.57882 0.912174 3.00326 0.892822 3.43577V37.0633C0.918156 37.9683 1.28906 38.8296 1.92937 39.4697C2.56967 40.1101 3.43081 40.4811 4.33599 40.5064H37.888C38.7679 40.4672 39.5975 40.0847 40.199 39.4411C40.8004 38.7974 41.1256 37.9439 41.105 37.0633V3.43577C41.1123 3.0148 41.0334 2.59682 40.8733 2.20741C40.7132 1.81804 40.4752 1.46545 40.1738 1.17127C39.8727 0.877121 39.5146 0.64761 39.1215 0.49679C38.7285 0.345969 38.3087 0.277029 37.888 0.294195ZM13.4591 33.8212H7.60323V15.9016H13.4591V33.8212ZM10.6694 13.1872C10.2608 13.2015 9.8536 13.1311 9.4735 12.9804C9.09337 12.8298 8.7485 12.6021 8.46058 12.3118C8.17263 12.0215 7.94782 11.6748 7.80029 11.2935C7.65274 10.9121 7.58566 10.5044 7.60323 10.0959C7.58516 9.68298 7.65359 9.27086 7.80416 8.88595C7.95473 8.50102 8.18409 8.15183 8.47752 7.86077C8.77096 7.56968 9.12199 7.34316 9.5081 7.19573C9.89424 7.04828 10.3069 6.98319 10.7197 7.0046C11.1283 6.99038 11.5355 7.06077 11.9156 7.21142C12.2957 7.36206 12.6406 7.58969 12.9285 7.88C13.2164 8.1703 13.4413 8.51701 13.5888 8.89834C13.7363 9.27968 13.8034 9.68741 13.7859 10.0959C13.8039 10.5088 13.7355 10.921 13.5849 11.3059C13.4343 11.6908 13.205 12.04 12.9116 12.3311C12.6181 12.6221 12.2671 12.8487 11.881 12.9961C11.4948 13.1435 11.0822 13.2086 10.6694 13.1872ZM34.4197 33.8212H28.5387V24.0195C28.5387 21.6821 27.7093 20.0736 25.6233 20.0736C24.9754 20.0792 24.3448 20.285 23.8185 20.663C23.292 21.041 22.8954 21.5725 22.6828 22.1848C22.5194 22.6437 22.4511 23.131 22.4817 23.6173V33.8212H16.7012V15.9016H22.4817V18.4149C22.9957 17.4707 23.7605 16.687 24.6919 16.1502C25.6233 15.6136 26.6849 15.3449 27.7596 15.3738C31.5546 15.3738 34.4197 17.8871 34.4197 23.2403V33.8212Z" fill="white"/>
</svg>
