<svg width="1920" height="1080" viewBox="0 0 1920 1080" fill="none" xmlns="http://www.w3.org/2000/svg">
<path d="M25 80C38.8071 80 50 68.8071 50 55C50 41.1929 38.8071 30 25 30C11.1929 30 0 41.1929 0 55C0 68.8071 11.1929 80 25 80Z" fill="#6C6C6C" fill-opacity="0.61"/>
<path d="M166 152C179.807 152 191 140.807 191 127C191 113.193 179.807 102 166 102C152.193 102 141 113.193 141 127C141 140.807 152.193 152 166 152Z" fill="#6C6C6C" fill-opacity="0.61"/>
<path d="M343 100C356.807 100 368 88.8071 368 75C368 61.1929 356.807 50 343 50C329.193 50 318 61.1929 318 75C318 88.8071 329.193 100 343 100Z" fill="#6C6C6C" fill-opacity="0.61"/>
<path d="M556 182C569.807 182 581 170.807 581 157C581 143.193 569.807 132 556 132C542.193 132 531 143.193 531 157C531 170.807 542.193 182 556 182Z" fill="#6C6C6C" fill-opacity="0.61"/>
<path d="M766 91C779.807 91 791 79.8071 791 66C791 52.1929 779.807 41 766 41C752.193 41 741 52.1929 741 66C741 79.8071 752.193 91 766 91Z" fill="#6C6C6C" fill-opacity="0.61"/>
<path d="M988 161C1001.81 161 1013 149.807 1013 136C1013 122.193 1001.81 111 988 111C974.193 111 963 122.193 963 136C963 149.807 974.193 161 988 161Z" fill="#6C6C6C" fill-opacity="0.61"/>
<path d="M1195 50C1208.81 50 1220 38.8071 1220 25C1220 11.1929 1208.81 0 1195 0C1181.19 0 1170 11.1929 1170 25C1170 38.8071 1181.19 50 1195 50Z" fill="#6C6C6C" fill-opacity="0.61"/>
<path d="M1426 191C1439.81 191 1451 179.807 1451 166C1451 152.193 1439.81 141 1426 141C1412.19 141 1401 152.193 1401 166C1401 179.807 1412.19 191 1426 191Z" fill="#6C6C6C" fill-opacity="0.61"/>
<path d="M1658 115C1671.81 115 1683 103.807 1683 90C1683 76.1929 1671.81 65 1658 65C1644.19 65 1633 76.1929 1633 90C1633 103.807 1644.19 115 1658 115Z" fill="#6C6C6C" fill-opacity="0.61"/>
<path d="M1891 171C1904.81 171 1916 159.807 1916 146C1916 132.193 1904.81 121 1891 121C1877.19 121 1866 132.193 1866 146C1866 159.807 1877.19 171 1891 171Z" fill="#6C6C6C" fill-opacity="0.61"/>
<path d="M96 291C109.807 291 121 279.807 121 266C121 252.193 109.807 241 96 241C82.1929 241 71 252.193 71 266C71 279.807 82.1929 291 96 291Z" fill="#6C6C6C" fill-opacity="0.61"/>
<path d="M296 369C309.807 369 321 357.807 321 344C321 330.193 309.807 319 296 319C282.193 319 271 330.193 271 344C271 357.807 282.193 369 296 369Z" fill="#6C6C6C" fill-opacity="0.61"/>
<path d="M509 322C522.807 322 534 310.807 534 297C534 283.193 522.807 272 509 272C495.193 272 484 283.193 484 297C484 310.807 495.193 322 509 322Z" fill="#6C6C6C" fill-opacity="0.61"/>
<path d="M736 263C749.807 263 761 251.807 761 238C761 224.193 749.807 213 736 213C722.193 213 711 224.193 711 238C711 251.807 722.193 263 736 263Z" fill="#6C6C6C" fill-opacity="0.61"/>
<path d="M947 389C960.807 389 972 377.807 972 364C972 350.193 960.807 339 947 339C933.193 339 922 350.193 922 364C922 377.807 933.193 389 947 389Z" fill="#6C6C6C" fill-opacity="0.61"/>
<path d="M1176 305C1189.81 305 1201 293.807 1201 280C1201 266.193 1189.81 255 1176 255C1162.19 255 1151 266.193 1151 280C1151 293.807 1162.19 305 1176 305Z" fill="#6C6C6C" fill-opacity="0.61"/>
<path d="M1374 361C1387.81 361 1399 349.807 1399 336C1399 322.193 1387.81 311 1374 311C1360.19 311 1349 322.193 1349 336C1349 349.807 1360.19 361 1374 361Z" fill="#6C6C6C" fill-opacity="0.61"/>
<path d="M1611 274C1624.81 274 1636 262.807 1636 249C1636 235.193 1624.81 224 1611 224C1597.19 224 1586 235.193 1586 249C1586 262.807 1597.19 274 1611 274Z" fill="#6C6C6C" fill-opacity="0.61"/>
<path d="M1820 399C1833.81 399 1845 387.807 1845 374C1845 360.193 1833.81 349 1820 349C1806.19 349 1795 360.193 1795 374C1795 387.807 1806.19 399 1820 399Z" fill="#6C6C6C" fill-opacity="0.61"/>
<path d="M25 536C38.8071 536 50 524.807 50 511C50 497.193 38.8071 486 25 486C11.1929 486 0 497.193 0 511C0 524.807 11.1929 536 25 536Z" fill="#6C6C6C" fill-opacity="0.61"/>
<path d="M250 478C263.807 478 275 466.807 275 453C275 439.193 263.807 428 250 428C236.193 428 225 439.193 225 453C225 466.807 236.193 478 250 478Z" fill="#6C6C6C" fill-opacity="0.61"/>
<path d="M474 578C487.807 578 499 566.807 499 553C499 539.193 487.807 528 474 528C460.193 528 449 539.193 449 553C449 566.807 460.193 578 474 578Z" fill="#6C6C6C" fill-opacity="0.61"/>
<path d="M704 511C717.807 511 729 499.807 729 486C729 472.193 717.807 461 704 461C690.193 461 679 472.193 679 486C679 499.807 690.193 511 704 511Z" fill="#6C6C6C" fill-opacity="0.61"/>
<path d="M918 611C931.807 611 943 599.807 943 586C943 572.193 931.807 561 918 561C904.193 561 893 572.193 893 586C893 599.807 904.193 611 918 611Z" fill="#6C6C6C" fill-opacity="0.61"/>
<path d="M1153 525C1166.81 525 1178 513.807 1178 500C1178 486.193 1166.81 475 1153 475C1139.19 475 1128 486.193 1128 500C1128 513.807 1139.19 525 1153 525Z" fill="#6C6C6C" fill-opacity="0.61"/>
<path d="M1356 458C1369.81 458 1381 446.807 1381 433C1381 419.193 1369.81 408 1356 408C1342.19 408 1331 419.193 1331 433C1331 446.807 1342.19 458 1356 458Z" fill="#6C6C6C" fill-opacity="0.61"/>
<path d="M1588 594C1601.81 594 1613 582.807 1613 569C1613 555.193 1601.81 544 1588 544C1574.19 544 1563 555.193 1563 569C1563 582.807 1574.19 594 1588 594Z" fill="#6C6C6C" fill-opacity="0.61"/>
<path d="M1806 497C1819.81 497 1831 485.807 1831 472C1831 458.193 1819.81 447 1806 447C1792.19 447 1781 458.193 1781 472C1781 485.807 1792.19 497 1806 497Z" fill="#6C6C6C" fill-opacity="0.61"/>
<path d="M140 729C153.807 729 165 717.807 165 704C165 690.193 153.807 679 140 679C126.193 679 115 690.193 115 704C115 717.807 126.193 729 140 729Z" fill="#6C6C6C" fill-opacity="0.61"/>
<path d="M367 666C380.807 666 392 654.807 392 641C392 627.193 380.807 616 367 616C353.193 616 342 627.193 342 641C342 654.807 353.193 666 367 666Z" fill="#6C6C6C" fill-opacity="0.61"/>
<path d="M585 779C598.807 779 610 767.807 610 754C610 740.193 598.807 729 585 729C571.193 729 560 740.193 560 754C560 767.807 571.193 779 585 779Z" fill="#6C6C6C" fill-opacity="0.61"/>
<path d="M804 709C817.807 709 829 697.807 829 684C829 670.193 817.807 659 804 659C790.193 659 779 670.193 779 684C779 697.807 790.193 709 804 709Z" fill="#6C6C6C" fill-opacity="0.61"/>
<path d="M1031 822C1044.81 822 1056 810.807 1056 797C1056 783.193 1044.81 772 1031 772C1017.19 772 1006 783.193 1006 797C1006 810.807 1017.19 822 1031 822Z" fill="#6C6C6C" fill-opacity="0.61"/>
<path d="M1258 737C1271.81 737 1283 725.807 1283 712C1283 698.193 1271.81 687 1258 687C1244.19 687 1233 698.193 1233 712C1233 725.807 1244.19 737 1258 737Z" fill="#6C6C6C" fill-opacity="0.61"/>
<path d="M1487 659C1500.81 659 1512 647.807 1512 634C1512 620.193 1500.81 609 1487 609C1473.19 609 1462 620.193 1462 634C1462 647.807 1473.19 659 1487 659Z" fill="#6C6C6C" fill-opacity="0.61"/>
<path d="M1690 800C1703.81 800 1715 788.807 1715 775C1715 761.193 1703.81 750 1690 750C1676.19 750 1665 761.193 1665 775C1665 788.807 1676.19 800 1690 800Z" fill="#6C6C6C" fill-opacity="0.61"/>
<path d="M1891 701C1904.81 701 1916 689.807 1916 676C1916 662.193 1904.81 651 1891 651C1877.19 651 1866 662.193 1866 676C1866 689.807 1877.19 701 1891 701Z" fill="#6C6C6C" fill-opacity="0.61"/>
<path d="M46 973C59.8071 973 71 961.807 71 948C71 934.193 59.8071 923 46 923C32.1929 923 21 934.193 21 948C21 961.807 32.1929 973 46 973Z" fill="#6C6C6C" fill-opacity="0.61"/>
<path d="M272 908C285.807 908 297 896.807 297 883C297 869.193 285.807 858 272 858C258.193 858 247 869.193 247 883C247 896.807 258.193 908 272 908Z" fill="#6C6C6C" fill-opacity="0.61"/>
<path d="M496 1025C509.807 1025 521 1013.81 521 1000C521 986.193 509.807 975 496 975C482.193 975 471 986.193 471 1000C471 1013.81 482.193 1025 496 1025Z" fill="#6C6C6C" fill-opacity="0.61"/>
<path d="M726 956C739.807 956 751 944.807 751 931C751 917.193 739.807 906 726 906C712.193 906 701 917.193 701 931C701 944.807 712.193 956 726 956Z" fill="#6C6C6C" fill-opacity="0.61"/>
<path d="M956 1076C969.807 1076 981 1064.81 981 1051C981 1037.19 969.807 1026 956 1026C942.193 1026 931 1037.19 931 1051C931 1064.81 942.193 1076 956 1076Z" fill="#6C6C6C" fill-opacity="0.61"/>
<path d="M1180 925C1193.81 925 1205 913.807 1205 900C1205 886.193 1193.81 875 1180 875C1166.19 875 1155 886.193 1155 900C1155 913.807 1166.19 925 1180 925Z" fill="#6C6C6C" fill-opacity="0.61"/>
<path d="M1409 1000C1422.81 1000 1434 988.807 1434 975C1434 961.193 1422.81 950 1409 950C1395.19 950 1384 961.193 1384 975C1384 988.807 1395.19 1000 1409 1000Z" fill="#6C6C6C" fill-opacity="0.61"/>
<path d="M1630 896C1643.81 896 1655 884.807 1655 871C1655 857.193 1643.81 846 1630 846C1616.19 846 1605 857.193 1605 871C1605 884.807 1616.19 896 1630 896Z" fill="#6C6C6C" fill-opacity="0.61"/>
<path d="M1852 1019C1865.81 1019 1877 1007.81 1877 994C1877 980.193 1865.81 969 1852 969C1838.19 969 1827 980.193 1827 994C1827 1007.81 1838.19 1019 1852 1019Z" fill="#6C6C6C" fill-opacity="0.61"/>
</svg>
